<svg xmlns="http://www.w3.org/2000/svg" xmlns:xlink="http://www.w3.org/1999/xlink" version="1.1" width="1000" height="1000" viewBox="0 0 1000 1000" xml:space="preserve">
<desc>Created with Fabric.js 3.5.0</desc>
<defs>
</defs>
<rect x="0" y="0" width="100%" height="100%" fill="#f7f7f7"/>
<g transform="matrix(0.6667 0 0 0.6667 500.025 500.0187)" id="490488">
<g style="" vector-effect="non-scaling-stroke">
		<g transform="matrix(1 0 0 1 0 0)" id="surface1">
<rect style="stroke: none; stroke-width: 1; stroke-dasharray: none; stroke-linecap: butt; stroke-dashoffset: 0; stroke-linejoin: miter; stroke-miterlimit: 4; is-custom-font: none; font-file-url: none; fill: rgb(247,247,247); fill-rule: nonzero; opacity: 1;" x="-750" y="-562.5" rx="0" ry="0" width="1500" height="1125"/>
</g>
		<g transform="matrix(1 0 0 1 -0.6816 -52.6348)" id="surface1">
<path style="stroke: none; stroke-width: 1; stroke-dasharray: none; stroke-linecap: butt; stroke-dashoffset: 0; stroke-linejoin: miter; stroke-miterlimit: 4; is-custom-font: none; font-file-url: none; fill: rgb(2,2,2); fill-rule: nonzero; opacity: 1;" transform=" translate(-749.3184, -509.8652)" d="M 420.605469 455.589844 L 420.605469 568.503906 L 382.238281 568.503906 L 382.238281 528.683594 L 362.601562 528.683594 L 362.601562 568.503906 L 323.691406 568.503906 L 323.691406 455.589844 L 362.601562 455.589844 L 362.601562 497.773438 L 382.238281 497.773438 L 382.238281 455.589844 Z M 472.425781 483.226562 L 472.425781 568.503906 L 434.605469 568.503906 L 434.605469 483.226562 Z M 433.878906 464.863281 C 433.878906 454.558594 440.363281 449.40625 453.335938 449.40625 C 466.304688 449.40625 472.792969 454.558594 472.792969 464.863281 C 472.792969 470.195312 471.179688 474.015625 467.953125 476.316406 C 464.753906 478.621094 459.882812 479.773438 453.335938 479.773438 C 446.789062 479.773438 441.90625 478.644531 438.679688 476.390625 C 435.480469 474.160156 433.878906 470.316406 433.878906 464.863281 Z M 522.066406 519.773438 L 522.066406 568.503906 L 484.609375 568.503906 L 484.609375 481.410156 L 516.976562 481.410156 L 518.066406 487.226562 L 518.792969 487.226562 C 521.703125 484.558594 525.039062 482.707031 528.796875 481.664062 C 532.554688 480.644531 538.066406 480.136719 545.339844 480.136719 L 544.25 510.320312 L 531.886719 510.320312 C 528.25 510.320312 525.703125 510.984375 524.25 512.320312 C 522.792969 513.652344 522.066406 516.136719 522.066406 519.773438 Z M 550.214844 524.574219 C 550.214844 508.648438 553.765625 497.105469 560.871094 489.953125 C 567.949219 482.800781 579.039062 479.226562 594.144531 479.226562 C 609.222656 479.226562 620.21875 482.742188 627.128906 489.773438 C 634.039062 496.804688 637.492188 508.34375 637.492188 524.394531 C 637.492188 540.46875 634.136719 552.140625 627.417969 559.414062 C 620.679688 566.6875 609.648438 570.324219 594.328125 570.324219 C 578.980469 570.324219 567.792969 566.6875 560.761719 559.414062 C 553.730469 552.140625 550.214844 540.527344 550.214844 524.574219 Z M 598.871094 509.15625 C 598.191406 507.023438 596.582031 505.957031 594.035156 505.957031 C 591.488281 505.957031 589.890625 507.023438 589.234375 509.15625 C 588.554688 511.265625 588.21875 515.773438 588.21875 522.683594 L 588.21875 527.046875 C 588.21875 534.804688 588.554688 539.800781 589.234375 542.03125 C 589.890625 544.285156 591.488281 545.414062 594.035156 545.414062 C 596.582031 545.414062 598.191406 544.285156 598.871094 542.03125 C 599.527344 539.800781 599.855469 535.109375 599.855469 527.957031 L 599.855469 522.867188 C 599.855469 515.835938 599.527344 511.265625 598.871094 509.15625 Z M 722.042969 455.589844 L 719.5 485.589844 L 686.40625 485.589844 L 686.40625 501.046875 L 711.496094 501.046875 L 711.496094 527.230469 L 686.40625 527.230469 L 686.40625 568.503906 L 647.492188 568.503906 L 647.492188 455.589844 Z M 723.863281 511.300781 C 723.863281 491.128906 727.886719 476.5 735.933594 467.40625 C 744.007812 458.316406 757.28125 453.769531 775.757812 453.769531 C 794.253906 453.769531 807.46875 458.253906 815.394531 467.226562 C 823.347656 476.195312 827.324219 490.765625 827.324219 510.9375 C 827.324219 531.132812 823.226562 546.078125 815.03125 555.777344 C 806.859375 565.476562 793.648438 570.324219 775.394531 570.324219 C 757.160156 570.324219 744.007812 565.535156 735.933594 555.957031 C 727.886719 546.382812 723.863281 531.496094 723.863281 511.300781 Z M 785.867188 489.664062 C 784.289062 486.585938 780.894531 485.046875 775.683594 485.046875 C 770.472656 485.046875 767.136719 486.558594 765.683594 489.589844 C 764.226562 492.621094 763.5 499.105469 763.5 509.046875 L 763.5 517.046875 C 763.5 527.230469 764.289062 533.835938 765.863281 536.867188 C 767.441406 539.898438 770.894531 541.414062 776.230469 541.414062 C 781.5625 541.414062 784.894531 539.957031 786.230469 537.046875 C 787.5625 534.140625 788.230469 527.652344 788.230469 517.59375 L 788.230469 509.230469 C 788.230469 499.289062 787.441406 492.765625 785.867188 489.664062 Z M 927.511719 491.953125 C 927.511719 499.226562 926.324219 505.011719 923.949219 509.300781 C 921.597656 513.617188 917.933594 517.410156 912.964844 520.683594 L 929.875 568.503906 L 889.691406 568.503906 L 878.417969 529.59375 L 875.507812 529.59375 L 875.507812 568.503906 L 838.234375 568.503906 L 838.234375 455.589844 L 886.417969 455.589844 C 900.480469 455.589844 910.84375 458.523438 917.511719 464.390625 C 924.179688 470.28125 927.511719 479.46875 927.511719 491.953125 Z M 879.328125 507.410156 C 882.113281 507.410156 884.078125 506.585938 885.21875 504.9375 C 886.382812 503.3125 886.964844 500.441406 886.964844 496.320312 C 886.964844 492.195312 886.355469 489.347656 885.144531 487.773438 C 883.933594 486.195312 882.054688 485.410156 879.507812 485.410156 L 874.78125 485.410156 L 874.78125 507.410156 Z M 980.570312 455.589844 L 980.570312 528.503906 C 980.570312 535.046875 983.515625 538.320312 989.40625 538.320312 C 995.273438 538.320312 998.207031 534.988281 998.207031 528.320312 L 998.207031 455.589844 L 1037.117188 455.589844 L 1037.117188 530.683594 C 1037.117188 544.019531 1032.9375 553.957031 1024.570312 560.503906 C 1016.207031 567.050781 1004.207031 570.324219 988.570312 570.324219 C 956.808594 570.324219 940.929688 557.230469 940.929688 531.046875 L 940.929688 455.589844 Z M 1170.761719 455.589844 L 1174.945312 568.503906 L 1140.578125 568.503906 L 1140.578125 514.683594 L 1139.671875 514.683594 L 1128.941406 568.503906 L 1097.121094 568.503906 L 1086.578125 514.683594 L 1085.667969 514.683594 L 1085.667969 568.503906 L 1051.664062 568.503906 L 1056.027344 455.589844 L 1104.394531 455.589844 L 1112.941406 506.683594 L 1114.578125 506.683594 L 1122.941406 455.589844 Z M 1170.761719 455.589844" stroke-linecap="round"/>
</g>
		<g transform="matrix(1 0 0 1 -0.6816 89.916)" id="surface1">
<path style="stroke: none; stroke-width: 1; stroke-dasharray: none; stroke-linecap: butt; stroke-dashoffset: 0; stroke-linejoin: miter; stroke-miterlimit: 4; is-custom-font: none; font-file-url: none; fill: rgb(2,2,2); fill-rule: nonzero; opacity: 1;" transform=" translate(-749.3184, -652.416)" d="M 323.847656 639.304688 C 323.847656 633.996094 325.457031 629.863281 328.671875 626.914062 C 331.890625 623.964844 336.359375 622.492188 342.074219 622.492188 C 347.78125 622.492188 353.664062 623.027344 359.726562 624.101562 L 357.875 638.257812 C 351.171875 636.917969 346.773438 636.246094 344.683594 636.246094 C 342.589844 636.246094 341.546875 636.890625 341.546875 638.175781 C 341.546875 638.660156 341.707031 638.992188 342.027344 639.175781 C 342.347656 639.367188 342.589844 639.519531 342.75 639.625 C 342.914062 639.734375 343.222656 639.867188 343.683594 640.027344 C 344.136719 640.1875 344.511719 640.332031 344.8125 640.460938 C 345.101562 640.601562 346.066406 641.003906 347.707031 641.667969 C 349.335938 642.34375 350.570312 642.878906 351.40625 643.277344 C 352.234375 643.683594 353.371094 644.34375 354.816406 645.257812 C 359 647.992188 361.09375 652.015625 361.09375 657.324219 C 361.09375 662.632812 359.511719 666.746094 356.347656 669.664062 C 353.183594 672.589844 348.640625 674.054688 342.71875 674.054688 C 336.789062 674.054688 330.980469 673.332031 325.296875 671.882812 L 326.421875 658.289062 C 333.609375 660.113281 338.460938 661.023438 340.980469 661.023438 C 342.644531 661.023438 343.476562 660.433594 343.476562 659.253906 C 343.476562 658.71875 343.277344 658.289062 342.878906 657.96875 C 342.472656 657.644531 341.882812 657.296875 341.109375 656.921875 C 340.328125 656.546875 339.183594 656.046875 337.683594 655.425781 C 336.183594 654.8125 334.921875 654.277344 333.902344 653.816406 C 332.882812 653.367188 331.675781 652.65625 330.28125 651.691406 C 325.992188 648.742188 323.847656 644.613281 323.847656 639.304688 Z M 395.78125 635.523438 L 395.78125 673.25 L 379.046875 673.25 L 379.046875 635.523438 Z M 378.726562 627.398438 C 378.726562 622.839844 381.59375 620.558594 387.332031 620.558594 C 393.074219 620.558594 395.941406 622.839844 395.941406 627.398438 C 395.941406 629.757812 395.226562 631.445312 393.800781 632.464844 C 392.386719 633.484375 390.230469 633.996094 387.332031 633.996094 C 384.4375 633.996094 382.277344 633.496094 380.851562 632.5 C 379.433594 631.511719 378.726562 629.8125 378.726562 627.398438 Z M 463.191406 633.753906 C 470.59375 633.753906 474.292969 637.398438 474.292969 644.695312 L 474.292969 673.25 L 457.320312 673.25 L 457.320312 648.3125 C 457.320312 647.457031 457 647.027344 456.355469 647.027344 C 455.496094 647.027344 454.425781 647.292969 453.136719 647.832031 L 453.136719 673.25 L 436.164062 673.25 L 436.164062 648.3125 C 436.164062 647.457031 435.816406 647.027344 435.117188 647.027344 C 434.152344 647.027344 433.078125 647.292969 431.898438 647.832031 L 431.898438 673.25 L 415.167969 673.25 L 415.167969 634.71875 L 430.371094 634.71875 L 430.855469 637.210938 C 434.449219 634.90625 438.335938 633.753906 442.519531 633.753906 C 446.703125 633.753906 449.707031 635.039062 451.527344 637.613281 C 455.175781 635.039062 459.0625 633.753906 463.191406 633.753906 Z M 515.980469 674.054688 C 513.996094 674.054688 512.011719 673.679688 510.027344 672.929688 L 510.027344 684.273438 L 493.296875 684.273438 L 493.296875 634.71875 L 507.132812 634.71875 L 507.777344 636.488281 C 510.296875 634.664062 513.324219 633.753906 516.867188 633.753906 C 522.65625 633.753906 526.574219 635.238281 528.609375 638.210938 C 530.648438 641.191406 531.667969 646.257812 531.667969 653.414062 C 531.667969 660.578125 530.566406 665.808594 528.371094 669.101562 C 526.171875 672.402344 522.039062 674.054688 515.980469 674.054688 Z M 512.441406 662.632812 C 513.566406 662.632812 514.265625 662.027344 514.53125 660.816406 C 514.800781 659.613281 514.933594 657.496094 514.933594 654.460938 C 514.933594 651.433594 514.773438 649.289062 514.453125 648.023438 C 514.128906 646.769531 513.433594 646.140625 512.359375 646.140625 C 511.664062 646.140625 510.832031 646.355469 509.867188 646.785156 L 509.867188 662.3125 C 510.832031 662.523438 511.691406 662.632812 512.441406 662.632812 Z M 549.605469 663.277344 L 549.605469 621.6875 L 566.097656 621.6875 L 566.097656 659.574219 C 566.097656 661.023438 567.089844 661.746094 569.074219 661.746094 L 567.867188 674.054688 L 561.269531 674.054688 C 553.496094 674.054688 549.605469 670.460938 549.605469 663.277344 Z M 604.96875 646.703125 C 603.84375 646.703125 603.066406 647.054688 602.636719 647.75 C 602.207031 648.449219 601.992188 649.519531 601.992188 650.96875 L 607.785156 650.96875 L 607.785156 649.679688 C 607.785156 647.695312 606.84375 646.703125 604.96875 646.703125 Z M 585.421875 653.863281 C 585.421875 647.480469 587.097656 642.53125 590.457031 639.015625 C 593.804688 635.507812 598.738281 633.753906 605.257812 633.753906 C 611.769531 633.753906 616.382812 635.09375 619.09375 637.773438 C 621.796875 640.457031 623.148438 644.292969 623.148438 649.277344 C 623.148438 651.261719 622.933594 654.265625 622.503906 658.289062 L 602.3125 658.289062 C 602.527344 661.183594 604.296875 662.632812 607.625 662.632812 C 609.179688 662.632812 613.253906 662.070312 619.851562 660.941406 L 621.21875 671.804688 C 615.535156 673.304688 610.222656 674.054688 605.289062 674.054688 C 598.855469 674.054688 593.9375 672.285156 590.535156 668.746094 C 587.125 665.207031 585.421875 660.246094 585.421875 653.863281 Z M 685.027344 621.125 C 688.621094 621.125 692.617188 621.257812 697.011719 621.527344 L 695.726562 634.15625 C 692.078125 633.832031 690.003906 633.671875 689.5 633.671875 C 688.984375 633.671875 688.726562 633.941406 688.726562 634.476562 L 688.726562 635.84375 L 695.566406 635.84375 L 694.679688 646.703125 L 688.886719 646.703125 L 688.886719 673.25 L 672.074219 673.25 L 672.074219 646.703125 L 668.214844 646.703125 L 668.214844 635.84375 L 672.074219 635.84375 L 672.074219 631.984375 C 672.074219 624.742188 676.390625 621.125 685.027344 621.125 Z M 710.222656 653.816406 C 710.222656 646.769531 711.789062 641.664062 714.921875 638.5 C 718.0625 635.335938 722.96875 633.753906 729.640625 633.753906 C 736.324219 633.753906 741.191406 635.308594 744.25 638.417969 C 747.308594 641.53125 748.835938 646.636719 748.835938 653.734375 C 748.835938 660.847656 747.34375 666.011719 744.363281 669.230469 C 741.390625 672.445312 736.511719 674.054688 729.722656 674.054688 C 722.941406 674.054688 718 672.445312 714.886719 669.230469 C 711.777344 666.011719 710.222656 660.875 710.222656 653.816406 Z M 731.734375 646.996094 C 731.445312 646.050781 730.734375 645.578125 729.609375 645.578125 C 728.484375 645.578125 727.769531 646.050781 727.46875 646.996094 C 727.179688 647.925781 727.035156 649.921875 727.035156 652.980469 L 727.035156 654.910156 C 727.035156 658.34375 727.179688 660.550781 727.46875 661.539062 C 727.769531 662.535156 728.484375 663.035156 729.609375 663.035156 C 730.734375 663.035156 731.445312 662.535156 731.734375 661.539062 C 732.035156 660.550781 732.183594 658.476562 732.183594 655.3125 L 732.183594 653.058594 C 732.183594 649.949219 732.035156 647.925781 731.734375 646.996094 Z M 783.363281 651.691406 L 783.363281 673.25 L 766.789062 673.25 L 766.789062 634.71875 L 781.109375 634.71875 L 781.59375 637.292969 L 781.914062 637.292969 C 783.203125 636.113281 784.675781 635.292969 786.339844 634.832031 C 788 634.378906 790.441406 634.15625 793.660156 634.15625 L 793.175781 647.507812 L 787.707031 647.507812 C 786.097656 647.507812 784.972656 647.804688 784.328125 648.394531 C 783.683594 648.984375 783.363281 650.082031 783.363281 651.691406 Z M 822.621094 674.054688 C 815.003906 674.054688 811.195312 670.410156 811.195312 663.117188 L 811.195312 634.71875 L 828.089844 634.71875 L 828.089844 659.976562 C 828.089844 660.835938 828.480469 661.265625 829.265625 661.265625 C 830.035156 661.265625 831.066406 660.996094 832.351562 660.460938 L 832.351562 634.71875 L 849.164062 634.71875 L 849.164062 673.089844 L 833.078125 673.089844 L 833.078125 671.078125 L 832.59375 671.078125 C 829.484375 673.0625 826.160156 674.054688 822.621094 674.054688 Z M 916.753906 633.753906 C 924.15625 633.753906 927.855469 637.398438 927.855469 644.695312 L 927.855469 673.25 L 910.882812 673.25 L 910.882812 648.3125 C 910.882812 647.457031 910.5625 647.027344 909.917969 647.027344 C 909.058594 647.027344 907.988281 647.292969 906.699219 647.832031 L 906.699219 673.25 L 889.726562 673.25 L 889.726562 648.3125 C 889.726562 647.457031 889.378906 647.027344 888.679688 647.027344 C 887.714844 647.027344 886.640625 647.292969 885.460938 647.832031 L 885.460938 673.25 L 868.730469 673.25 L 868.730469 634.71875 L 883.933594 634.71875 L 884.417969 637.210938 C 888.011719 634.90625 891.898438 633.753906 896.082031 633.753906 C 900.265625 633.753906 903.265625 635.039062 905.089844 637.613281 C 908.738281 635.039062 912.625 633.753906 916.753906 633.753906 Z M 1005.824219 661.265625 C 1005.824219 669.792969 1000.863281 674.054688 990.941406 674.054688 C 985.792969 674.054688 980.804688 673.492188 975.980469 672.367188 L 977.023438 660.542969 C 983.726562 662.148438 988.179688 662.953125 990.378906 662.953125 C 991.128906 662.953125 991.503906 662.714844 991.503906 662.230469 C 991.503906 661.746094 991.074219 661.34375 990.21875 661.023438 C 984.695312 659.148438 980.671875 657.164062 978.152344 655.070312 C 975.628906 652.980469 974.371094 649.976562 974.371094 646.0625 C 974.371094 642.144531 975.753906 639.117188 978.519531 636.972656 C 981.277344 634.824219 985.003906 633.753906 989.703125 633.753906 C 994.390625 633.753906 999.550781 634.289062 1005.179688 635.363281 L 1003.492188 647.507812 C 996.410156 646.113281 992.121094 645.417969 990.621094 645.417969 C 989.921875 645.417969 989.574219 645.6875 989.574219 646.222656 C 989.574219 646.652344 990.03125 647.027344 990.941406 647.347656 C 995.394531 648.796875 998.609375 650.226562 1000.59375 651.644531 C 1002.578125 653.070312 1003.945312 654.535156 1004.699219 656.035156 C 1005.449219 657.539062 1005.824219 659.28125 1005.824219 661.265625 Z M 1040.191406 635.523438 L 1040.191406 673.25 L 1023.457031 673.25 L 1023.457031 635.523438 Z M 1023.136719 627.398438 C 1023.136719 622.839844 1026.003906 620.558594 1031.742188 620.558594 C 1037.480469 620.558594 1040.351562 622.839844 1040.351562 627.398438 C 1040.351562 629.757812 1039.636719 631.445312 1038.210938 632.464844 C 1036.792969 633.484375 1034.640625 633.996094 1031.742188 633.996094 C 1028.847656 633.996094 1026.683594 633.496094 1025.257812 632.5 C 1023.84375 631.511719 1023.136719 629.8125 1023.136719 627.398438 Z M 1073.65625 674.054688 C 1069.472656 674.054688 1066.402344 673.261719 1064.453125 671.675781 C 1062.488281 670.097656 1061.507812 667.378906 1061.507812 663.515625 L 1061.507812 646.0625 L 1057.242188 646.0625 L 1057.242188 635.199219 L 1062.3125 635.199219 L 1063.359375 628.042969 L 1078.238281 628.042969 L 1078.238281 635.199219 L 1085.558594 635.199219 L 1085.558594 646.0625 L 1078.160156 646.0625 L 1078.160156 660.941406 C 1078.160156 661.640625 1078.480469 661.988281 1079.125 661.988281 C 1079.179688 661.988281 1081.296875 661.882812 1085.480469 661.667969 L 1084.996094 673.25 C 1079.632812 673.789062 1075.851562 674.054688 1073.65625 674.054688 Z M 1121.535156 646.703125 C 1120.410156 646.703125 1119.632812 647.054688 1119.203125 647.75 C 1118.773438 648.449219 1118.558594 649.519531 1118.558594 650.96875 L 1124.351562 650.96875 L 1124.351562 649.679688 C 1124.351562 647.695312 1123.410156 646.703125 1121.535156 646.703125 Z M 1101.988281 653.863281 C 1101.988281 647.480469 1103.660156 642.53125 1107.007812 639.015625 C 1110.363281 635.507812 1115.296875 633.753906 1121.808594 633.753906 C 1128.328125 633.753906 1132.941406 635.09375 1135.644531 637.773438 C 1138.359375 640.457031 1139.714844 644.292969 1139.714844 649.277344 C 1139.714844 651.261719 1139.5 654.265625 1139.070312 658.289062 L 1118.878906 658.289062 C 1119.09375 661.183594 1120.863281 662.632812 1124.191406 662.632812 C 1125.746094 662.632812 1129.820312 662.070312 1136.417969 660.941406 L 1137.785156 671.804688 C 1132.101562 673.304688 1126.789062 674.054688 1121.855469 674.054688 C 1115.421875 674.054688 1110.496094 672.285156 1107.085938 668.746094 C 1103.6875 665.207031 1101.988281 660.246094 1101.988281 653.863281 Z M 1166.984375 674.054688 C 1164.089844 674.054688 1162.050781 673.53125 1160.871094 672.480469 C 1159.691406 671.4375 1159.101562 669.820312 1159.101562 667.621094 C 1159.101562 665.421875 1159.683594 663.796875 1160.839844 662.746094 C 1161.988281 661.703125 1164.035156 661.183594 1166.984375 661.183594 C 1169.9375 661.183594 1171.972656 661.703125 1173.101562 662.746094 C 1174.226562 663.796875 1174.789062 665.421875 1174.789062 667.621094 C 1174.789062 669.820312 1174.214844 671.4375 1173.066406 672.480469 C 1171.910156 673.53125 1169.882812 674.054688 1166.984375 674.054688 Z M 1166.984375 674.054688" stroke-linecap="round"/>
</g>
		<g transform="matrix(1 0 0 1 -0.6817 0.2832)" id="surface1" clip-path="url(#CLIPPATH_1)">
<clipPath id="CLIPPATH_1">
	<path transform="matrix(1 0 0 1 -0.0019 0) translate(-749.3164, -562.7832)" id="clip3" d="M 405.949219 214.621094 L 1092.683594 214.621094 L 1092.683594 910.945312 L 405.949219 910.945312 Z M 405.949219 214.621094" stroke-linecap="round"/>
</clipPath>
<path style="stroke: none; stroke-width: 1; stroke-dasharray: none; stroke-linecap: butt; stroke-dashoffset: 0; stroke-linejoin: miter; stroke-miterlimit: 4; is-custom-font: none; font-file-url: none; fill: rgb(2,2,2); fill-rule: nonzero; opacity: 1;" transform=" translate(-749.3184, -562.7832)" d="M 1027.015625 445.941406 L 864.175781 492.929688 L 876.632812 536.019531 L 1039.453125 489.035156 Z M 1023.609375 452.117188 L 1033.277344 485.628906 L 880.023438 529.84375 L 870.34375 496.335938 Z M 864.371094 424.574219 L 862.992188 419.785156 L 1000.492188 380.105469 L 1001.875 384.898438 Z M 858.238281 546.421875 L 856.859375 541.628906 L 684.003906 591.507812 L 672.5 551.585938 L 845.335938 501.71875 L 843.960938 496.925781 L 671.113281 546.804688 L 657.988281 501.308594 L 653.195312 502.691406 L 666.324219 548.1875 L 581.707031 572.605469 L 568.578125 527.109375 L 563.789062 528.496094 L 576.914062 573.992188 L 469.15625 605.078125 L 470.539062 609.871094 L 578.300781 578.789062 L 589.808594 618.703125 L 482.054688 649.78125 L 483.433594 654.582031 L 591.191406 623.492188 L 599.71875 653.023438 L 604.511719 651.644531 L 595.984375 622.109375 L 680.597656 597.699219 L 689.117188 627.222656 L 693.910156 625.855469 L 685.390625 596.324219 Z M 594.605469 617.292969 L 583.089844 577.386719 L 667.707031 552.972656 L 679.214844 592.890625 Z M 1034.804688 555.59375 L 1034.394531 557.371094 C 1033.742188 560.304688 1033.0625 563.320312 1031.519531 565.375 C 1028.410156 562.160156 1027.03125 557.25 1025.597656 552.089844 C 1024.523438 548.277344 1023.410156 544.320312 1021.5 541.046875 L 1019.691406 537.945312 L 1017.433594 540.722656 C 1012.511719 546.734375 1011.171875 554.976562 1010.019531 562.265625 C 1009.839844 562.082031 1009.691406 561.925781 1009.535156 561.761719 C 1002.09375 554.058594 994.402344 546.089844 994.550781 535.769531 L 989.59375 535.347656 C 988.6875 541.175781 986.589844 547.578125 984.367188 554.355469 C 982.023438 561.550781 979.636719 568.878906 978.460938 576.019531 C 975.5625 571.96875 971.78125 567.796875 967.90625 563.527344 C 966.632812 562.117188 965.335938 560.699219 964.082031 559.277344 C 965.894531 547.640625 964.804688 535.699219 956.242188 527.980469 L 954.605469 526.515625 L 952.957031 527.9375 C 949.472656 530.925781 947.566406 534.417969 947.332031 538.3125 C 946.859375 545.601562 952.234375 553.207031 958.757812 560.722656 C 957.15625 569.15625 954.140625 577.136719 952.042969 582.011719 L 956.617188 583.972656 C 958.820312 578.859375 961.234375 572.335938 962.886719 565.394531 C 963.347656 565.890625 963.792969 566.378906 964.230469 566.875 C 969.804688 572.996094 975.484375 579.261719 977.78125 584.609375 C 977.808594 587.101562 978.054688 589.566406 978.59375 591.996094 L 983.445312 592.109375 C 984.183594 589.375 983.855469 586.542969 982.78125 583.660156 C 982.957031 574.90625 986.074219 565.28125 989.148438 555.90625 C 990.132812 552.847656 991.117188 549.863281 991.964844 546.953125 C 995.074219 553.964844 1000.753906 559.835938 1005.9375 565.21875 C 1007.261719 566.59375 1008.582031 567.945312 1009.8125 569.285156 L 1013.199219 572.960938 L 1014.105469 568.058594 C 1014.402344 566.464844 1014.65625 564.835938 1014.917969 563.171875 C 1015.796875 557.703125 1016.667969 552.074219 1018.96875 547.484375 C 1019.628906 549.332031 1020.203125 551.351562 1020.777344 553.425781 C 1022.609375 559.949219 1024.480469 566.691406 1030.167969 570.765625 L 1031.648438 571.839844 L 1033.105469 570.75 C 1037.15625 567.753906 1038.332031 562.597656 1039.261719 558.441406 L 1039.644531 556.75 Z M 959.664062 554.035156 C 955.25 548.519531 952.015625 543.199219 952.304688 538.617188 C 952.433594 536.726562 953.175781 534.984375 954.570312 533.347656 C 959.175781 538.730469 960.265625 546.289062 959.664062 554.035156 Z M 604.773438 693.300781 L 592.96875 696.722656 L 587.542969 678.09375 L 599.355469 674.644531 Z M 615.652344 690.128906 L 609.121094 692.019531 L 603.699219 673.386719 L 610.226562 671.472656 Z M 629.519531 686.089844 L 621.347656 688.457031 L 615.921875 669.816406 L 624.09375 667.457031 Z M 641.949219 682.480469 L 633.777344 684.851562 L 628.351562 666.210938 L 636.523438 663.832031 Z M 656.957031 678.109375 L 645.15625 681.558594 L 639.738281 662.917969 L 651.550781 659.46875 Z M 667.828125 674.9375 L 661.304688 676.847656 L 655.878906 658.195312 L 662.410156 656.289062 Z M 681.707031 670.90625 L 673.535156 673.265625 L 668.109375 654.632812 L 676.277344 652.257812 Z M 694.128906 667.28125 L 685.957031 669.660156 L 680.53125 651.019531 L 688.699219 648.648438 Z M 730.957031 636.394531 L 742.757812 632.945312 L 748.175781 651.613281 L 736.367188 655.042969 Z M 720.078125 639.539062 L 726.609375 637.640625 L 732.027344 656.28125 L 725.496094 658.1875 Z M 706.207031 643.570312 L 714.378906 641.195312 L 719.804688 659.859375 L 711.636719 662.222656 Z M 693.777344 647.1875 L 701.941406 644.816406 L 707.367188 663.457031 L 699.207031 665.828125 Z M 1092.6875 576.210938 L 1015.761719 309.613281 L 821.871094 365.558594 C 806.226562 349.558594 784.519531 339.496094 760.574219 339.28125 C 784.597656 329.882812 801.660156 306.554688 801.660156 279.183594 C 801.660156 243.53125 772.777344 214.621094 737.105469 214.621094 C 701.453125 214.621094 672.550781 243.523438 672.550781 279.183594 C 672.550781 306.554688 689.605469 329.882812 713.648438 339.28125 C 667.742188 339.714844 630.164062 376.160156 627.742188 421.570312 L 584.109375 434.15625 C 578.441406 424.140625 567.804688 417.292969 555.480469 417.292969 C 537.238281 417.292969 522.449219 432.085938 522.449219 450.324219 C 522.449219 450.863281 522.578125 451.371094 522.613281 451.890625 L 405.949219 485.566406 L 482.882812 752.160156 L 663.160156 700.140625 L 663.160156 891.582031 C 663.160156 902.246094 673.726562 910.945312 686.652344 910.945312 L 705.191406 910.945312 C 718.117188 910.945312 728.691406 902.246094 728.691406 891.582031 L 728.691406 704.074219 L 745.511719 704.074219 L 745.511719 891.582031 C 745.511719 902.246094 756.09375 910.945312 769.011719 910.945312 L 787.550781 910.945312 C 800.476562 910.945312 811.050781 902.246094 811.050781 891.582031 L 811.050781 687.097656 C 824.132812 677.464844 834.421875 664.257812 840.511719 648.972656 L 896.625 632.789062 C 901.972656 643.851562 913.183594 651.523438 926.292969 651.523438 C 944.523438 651.523438 959.316406 636.734375 959.316406 618.492188 C 959.316406 617.222656 959.089844 616.046875 958.949219 614.800781 Z M 555.46875 483.371094 C 568.804688 483.371094 580.234375 475.417969 585.433594 464.035156 L 596.847656 460.75 L 606.515625 494.277344 L 453.257812 538.496094 L 443.597656 504.964844 L 537.429688 477.886719 C 542.621094 481.316406 548.78125 483.371094 555.46875 483.371094 Z M 926.3125 585.460938 C 908.0625 585.460938 893.269531 600.261719 893.269531 618.492188 C 893.269531 620.132812 893.515625 621.671875 893.757812 623.242188 L 489.703125 739.832031 L 418.300781 492.386719 L 524.574219 461.726562 C 526.304688 466.449219 529.09375 470.664062 532.621094 474.097656 L 437.421875 501.5625 L 449.851562 544.660156 L 612.683594 497.683594 L 600.242188 454.574219 L 587.421875 458.277344 C 588.058594 455.726562 588.492188 453.09375 588.492188 450.339844 C 588.492188 447.988281 588.230469 445.699219 587.761719 443.488281 L 1008.957031 321.964844 L 1080.351562 569.398438 L 956.476562 605.148438 C 951.335938 593.570312 939.785156 585.460938 926.3125 585.460938 Z M 926.3125 585.460938" stroke-linecap="round"/>
</g>
</g>
</g>
</svg>