<svg xmlns="http://www.w3.org/2000/svg" version="1.1" xmlns:xlink="http://www.w3.org/1999/xlink" xmlns:svgjs="http://svgjs.dev/svgjs" width="2000" height="1500" viewBox="0 0 2000 1500"><rect width="2000" height="1500" fill="#f9f9f9"></rect><g transform="matrix(0.75,0,0,0.75,249.090909090909,282.7536437246963)"><svg viewBox="0 0 396 247" data-background-color="#f9f9f9" preserveAspectRatio="xMidYMid meet" height="1247" width="2000" xmlns="http://www.w3.org/2000/svg" xmlns:xlink="http://www.w3.org/1999/xlink"><g id="tight-bounds" transform="matrix(1,0,0,1,0.2400000000000091,-0.09999999999999432)"><svg viewBox="0 0 395.52 247.2" height="247.2" width="395.52"><g><svg></svg></g><g><svg viewBox="0 0 395.52 247.2" height="247.2" width="395.52"><mask id="3271fc1e-df4c-4174-a093-b4849fa56f32"><rect width="640" height="400" fill="white"></rect><g transform="matrix(1,0,0,1,39.55199999999999,78.55368288836166)"><svg viewBox="0 0 316.416 90.09263422327665" height="90.09263422327665" width="316.416"><g><svg viewBox="0 0 316.416 90.09263422327665" height="90.09263422327665" width="316.416"><g><svg viewBox="0 0 316.416 90.09263422327665" height="90.09263422327665" width="316.416"><g><svg viewBox="0 0 316.416 90.09263422327665" height="90.09263422327665" width="316.416"><g id="SvgjsG4696"><svg viewBox="0 0 316.416 90.09263422327665" height="90.09263422327665" width="316.416" id="SvgjsSvg4695"><g><svg viewBox="0 0 316.416 52.823492326835336" height="52.823492326835336" width="316.416"><g transform="matrix(1,0,0,1,0,0)"><svg width="316.416" viewBox="-2 -36.75 242.08 41.25" height="52.823492326835336" data-palette-color="#030303"><path d="M28.65-31.05L28.65 0 18.1 0 18.1-10.95 12.7-10.95 12.7 0 2 0 2-31.05 12.7-31.05 12.7-19.45 18.1-19.45 18.1-31.05 28.65-31.05ZM42.9-23.45L42.9 0 32.5 0 32.5-23.45 42.9-23.45ZM32.3-28.5L32.3-28.5Q32.3-32.75 37.65-32.75 43-32.75 43-28.5L43-28.5Q43-26.3 41.67-25.35 40.35-24.4 37.65-24.4 34.95-24.4 33.62-25.33 32.3-26.25 32.3-28.5ZM56.55-13.4L56.55-13.4 56.55 0 46.25 0 46.25-23.95 55.15-23.95 55.45-22.35 55.65-22.35Q56.85-23.45 58.4-23.88 59.95-24.3 62.95-24.3L62.95-24.3 62.65-16 59.25-16Q57.75-16 57.15-15.45 56.55-14.9 56.55-13.4ZM64.29-12.08Q64.29-18.65 67.22-21.6 70.14-24.55 76.37-24.55 82.59-24.55 85.44-21.65 88.29-18.75 88.29-12.13 88.29-5.5 85.52-2.5 82.74 0.5 76.42 0.5 70.09 0.5 67.19-2.5 64.29-5.5 64.29-12.08ZM77.67-16.32Q77.39-17.2 76.34-17.2 75.29-17.2 75.02-16.32 74.74-15.45 74.74-12.6L74.74-12.6 74.74-11.4Q74.74-8.2 75.02-7.28 75.29-6.35 76.34-6.35 77.39-6.35 77.67-7.28 77.94-8.2 77.94-11.15L77.94-11.15 77.94-12.55Q77.94-15.45 77.67-16.32ZM111.54-31.05L110.84-22.8 101.74-22.8 101.74-18.55 108.64-18.55 108.64-11.35 101.74-11.35 101.74 0 91.04 0 91.04-31.05 111.54-31.05ZM112.04-15.73Q112.04-24.05 115.36-27.8 118.69-31.55 126.31-31.55 133.94-31.55 137.21-27.85 140.49-24.15 140.49-15.83 140.49-7.5 137.11-3.5 133.74 0.5 126.21 0.5 118.69 0.5 115.36-3.45 112.04-7.4 112.04-15.73ZM129.09-21.68Q128.44-22.95 126.29-22.95 124.14-22.95 123.54-21.7 122.94-20.45 122.94-16.35L122.94-16.35 122.94-14.15Q122.94-9.95 123.59-8.7 124.24-7.45 126.44-7.45 128.64-7.45 129.19-8.65 129.74-9.85 129.74-14L129.74-14 129.74-16.3Q129.74-20.4 129.09-21.68ZM168.04-21.05L168.04-21.05Q168.04-18.05 167.06-16.28 166.09-14.5 164.04-13.15L164.04-13.15 168.69 0 157.64 0 154.54-10.7 153.74-10.7 153.74 0 143.49 0 143.49-31.05 156.74-31.05Q162.54-31.05 165.29-28.63 168.04-26.2 168.04-21.05ZM154.79-16.8Q155.94-16.8 156.41-17.48 156.89-18.15 156.89-19.85 156.89-21.55 156.39-22.2 155.89-22.85 154.84-22.85L154.84-22.85 153.54-22.85 153.54-16.8 154.79-16.8ZM182.63-31.05L182.63-11Q182.63-8.3 185.06-8.3 187.48-8.3 187.48-11.05L187.48-11.05 187.48-31.05 198.18-31.05 198.18-10.4Q198.18-4.9 194.73-2.2 191.28 0.5 184.83 0.5L184.83 0.5Q171.73 0.5 171.73-10.3L171.73-10.3 171.73-31.05 182.63-31.05ZM234.93-31.05L236.08 0 226.63 0 226.63-14.8 226.38-14.8 223.43 0 214.68 0 211.78-14.8 211.53-14.8 211.53 0 202.18 0 203.38-31.05 216.68-31.05 219.03-17 219.48-17 221.78-31.05 234.93-31.05Z" opacity="1" transform="matrix(1,0,0,1,0,0)" fill="black" class="wordmark-text-0" id="SvgjsPath4694" stroke-width="7" stroke="black" stroke-linejoin="round"></path></svg></g></svg></g><g transform="matrix(1,0,0,1,3.5,63.12509305363749)"><svg viewBox="0 0 309.416 26.967541169639155" height="26.967541169639155" width="309.416"><g transform="matrix(1,0,0,1,0,0)"><svg width="309.416" viewBox="-3.5 -36.75 536.9 47.6" height="26.967541169639155" data-palette-color="#030303"><path d="M0.5-21.1Q0.5-26.05 3.5-28.8 6.5-31.55 11.83-31.55 17.15-31.55 22.8-30.55L22.8-30.55 21.65-21.75Q15.4-23 13.45-23 11.5-23 11.5-21.8L11.5-21.8Q11.5-21.35 11.8-21.18 12.1-21 12.25-20.9 12.4-20.8 12.83-20.65 13.25-20.5 13.53-20.38 13.8-20.25 15.33-19.63 16.85-19 17.63-18.63 18.4-18.25 19.75-17.4L19.75-17.4Q23.65-14.85 23.65-9.9 23.65-4.95 20.7-2.23 17.75 0.5 12.23 0.5 6.7 0.5 1.4-0.85L1.4-0.85 2.1-9.3Q8.8-7.6 11.15-7.6L11.15-7.6Q12.7-7.6 12.7-8.7L12.7-8.7Q12.7-9.2 12.33-9.5 11.95-9.8 11.23-10.15 10.5-10.5 9.1-11.08 7.7-11.65 6.75-12.08 5.8-12.5 4.5-13.4L4.5-13.4Q0.5-16.15 0.5-21.1ZM45.21-23.45L45.21 0 34.81 0 34.81-23.45 45.21-23.45ZM34.61-28.5L34.61-28.5Q34.61-32.75 39.96-32.75 45.31-32.75 45.31-28.5L45.31-28.5Q45.31-26.3 43.98-25.35 42.66-24.4 39.96-24.4 37.26-24.4 35.93-25.33 34.61-26.25 34.61-28.5ZM87.11-24.55L87.11-24.55Q94.01-24.55 94.01-17.75L94.01-17.75 94.01 0 83.46 0 83.46-15.5Q83.46-16.3 82.86-16.3L82.86-16.3Q82.06-16.3 80.86-15.8L80.86-15.8 80.86 0 70.31 0 70.31-15.5Q70.31-16.3 69.66-16.3L69.66-16.3Q68.76-16.3 67.66-15.8L67.66-15.8 67.66 0 57.26 0 57.26-23.95 66.71-23.95 67.01-22.4Q70.36-24.55 74.26-24.55 78.16-24.55 79.86-22.15L79.86-22.15Q83.26-24.55 87.11-24.55ZM119.92 0.5L119.92 0.5Q118.07 0.5 116.22-0.2L116.22-0.2 116.22 6.85 105.82 6.85 105.82-23.95 114.42-23.95 114.82-22.85Q117.17-24.55 120.47-24.55L120.47-24.55Q125.87-24.55 127.77-21.78 129.67-19 129.67-12.33 129.67-5.65 127.62-2.58 125.57 0.5 119.92 0.5ZM117.72-6.6Q118.77-6.6 119.02-7.73 119.27-8.85 119.27-11.68 119.27-14.5 118.97-15.68 118.67-16.85 117.67-16.85L117.67-16.85Q117.02-16.85 116.12-16.45L116.12-16.45 116.12-6.8Q117.02-6.6 117.72-6.6L117.72-6.6ZM140.82-6.2L140.82-6.2 140.82-32.05 151.07-32.05 151.07-8.5Q151.07-7.15 152.92-7.15L152.92-7.15 152.17 0.5 148.07 0.5Q140.82 0.5 140.82-6.2ZM175.23-16.5L175.23-16.5Q174.18-16.5 173.78-15.85 173.38-15.2 173.38-13.85L173.38-13.85 176.98-13.85 176.98-14.65Q176.98-16.5 175.23-16.5ZM163.08-12.05Q163.08-18 166.21-21.28 169.33-24.55 175.41-24.55 181.48-24.55 184.01-22.05 186.53-19.55 186.53-14.9L186.53-14.9Q186.53-13.05 186.13-9.3L186.13-9.3 173.58-9.3Q173.78-6.6 176.88-6.6L176.88-6.6Q178.33-6.6 184.48-7.65L184.48-7.65 185.33-0.9Q180.03 0.5 175.43 0.5L175.43 0.5Q169.43 0.5 166.26-2.8 163.08-6.1 163.08-12.05ZM224.99-32.4L224.99-32.4Q228.34-32.4 232.44-32.15L232.44-32.15 231.64-24.3Q228.24-24.6 227.77-24.6 227.29-24.6 227.29-24.1L227.29-24.1 227.29-23.25 231.54-23.25 230.99-16.5 227.39-16.5 227.39 0 216.94 0 216.94-16.5 214.54-16.5 214.54-23.25 216.94-23.25 216.94-25.65Q216.94-32.4 224.99-32.4ZM240.65-12.08Q240.65-18.65 243.57-21.6 246.5-24.55 252.72-24.55 258.95-24.55 261.8-21.65 264.65-18.75 264.65-12.13 264.65-5.5 261.87-2.5 259.1 0.5 252.77 0.5 246.45 0.5 243.55-2.5 240.65-5.5 240.65-12.08ZM254.02-16.32Q253.75-17.2 252.7-17.2 251.65-17.2 251.37-16.32 251.1-15.45 251.1-12.6L251.1-12.6 251.1-11.4Q251.1-8.2 251.37-7.28 251.65-6.35 252.7-6.35 253.75-6.35 254.02-7.28 254.3-8.2 254.3-11.15L254.3-11.15 254.3-12.55Q254.3-15.45 254.02-16.32ZM286.11-13.4L286.11-13.4 286.11 0 275.81 0 275.81-23.95 284.71-23.95 285.01-22.35 285.21-22.35Q286.41-23.45 287.96-23.88 289.51-24.3 292.51-24.3L292.51-24.3 292.21-16 288.81-16Q287.31-16 286.71-15.45 286.11-14.9 286.11-13.4ZM310.51 0.5L310.51 0.5Q303.41 0.5 303.41-6.3L303.41-6.3 303.41-23.95 313.91-23.95 313.91-8.25Q313.91-7.45 314.64-7.45 315.36-7.45 316.56-7.95L316.56-7.95 316.56-23.95 327.01-23.95 327.01-0.1 317.01-0.1 317.01-1.35 316.71-1.35Q313.81 0.5 310.51 0.5ZM369.02-24.55L369.02-24.55Q375.92-24.55 375.92-17.75L375.92-17.75 375.92 0 365.37 0 365.37-15.5Q365.37-16.3 364.77-16.3L364.77-16.3Q363.97-16.3 362.77-15.8L362.77-15.8 362.77 0 352.22 0 352.22-15.5Q352.22-16.3 351.57-16.3L351.57-16.3Q350.67-16.3 349.57-15.8L349.57-15.8 349.57 0 339.17 0 339.17-23.95 348.62-23.95 348.92-22.4Q352.27-24.55 356.17-24.55 360.07-24.55 361.77-22.15L361.77-22.15Q365.17-24.55 369.02-24.55ZM424.38-7.45L424.38-7.45Q424.38 0.5 415.13 0.5L415.13 0.5Q410.33 0.5 405.83-0.55L405.83-0.55 406.48-7.9Q412.73-6.4 414.78-6.4L414.78-6.4Q415.48-6.4 415.48-6.85 415.48-7.3 414.68-7.6L414.68-7.6Q409.53-9.35 407.18-11.3 404.83-13.25 404.83-16.9 404.83-20.55 407.41-22.55 409.98-24.55 414.36-24.55 418.73-24.55 423.98-23.55L423.98-23.55 422.93-16Q416.33-17.3 414.93-17.3L414.93-17.3Q414.28-17.3 414.28-16.8L414.28-16.8Q414.28-16.4 415.13-16.1L415.13-16.1Q419.28-14.75 421.13-13.43 422.98-12.1 423.68-10.7 424.38-9.3 424.38-7.45ZM445.74-23.45L445.74 0 435.34 0 435.34-23.45 445.74-23.45ZM435.14-28.5L435.14-28.5Q435.14-32.75 440.49-32.75 445.84-32.75 445.84-28.5L445.84-28.5Q445.84-26.3 444.51-25.35 443.19-24.4 440.49-24.4 437.79-24.4 436.46-25.33 435.14-26.25 435.14-28.5ZM466.54 0.5L466.54 0.5Q462.64 0.5 460.82-0.98 458.99-2.45 458.99-6.05L458.99-6.05 458.99-16.9 456.34-16.9 456.34-23.65 459.49-23.65 460.14-28.1 469.39-28.1 469.39-23.65 473.94-23.65 473.94-16.9 469.34-16.9 469.34-7.65Q469.34-7 469.94-7L469.94-7Q469.99-7 473.89-7.2L473.89-7.2 473.59 0Q468.59 0.5 466.54 0.5ZM496.3-16.5L496.3-16.5Q495.25-16.5 494.85-15.85 494.45-15.2 494.45-13.85L494.45-13.85 498.05-13.85 498.05-14.65Q498.05-16.5 496.3-16.5ZM484.15-12.05Q484.15-18 487.27-21.28 490.4-24.55 496.47-24.55 502.55-24.55 505.07-22.05 507.6-19.55 507.6-14.9L507.6-14.9Q507.6-13.05 507.2-9.3L507.2-9.3 494.65-9.3Q494.85-6.6 497.95-6.6L497.95-6.6Q499.4-6.6 505.55-7.65L505.55-7.65 506.4-0.9Q501.1 0.5 496.5 0.5L496.5 0.5Q490.5 0.5 487.32-2.8 484.15-6.1 484.15-12.05ZM524.55 0.5Q521.85 0.5 520.75-0.48 519.65-1.45 519.65-3.5 519.65-5.55 520.73-6.53 521.8-7.5 524.55-7.5 527.3-7.5 528.35-6.53 529.4-5.55 529.4-3.5 529.4-1.45 528.33-0.48 527.25 0.5 524.55 0.5Z" opacity="1" transform="matrix(1,0,0,1,0,0)" fill="black" class="slogan-text-1" id="SvgjsPath4693" stroke-width="7" stroke="black" stroke-linejoin="round"></path></svg></g></svg></g></svg></g></svg></g><g></g></svg></g></svg></g></svg></g></mask><g transform="matrix(1,0,0,1,39.55199999999999,78.55368288836166)"><svg viewBox="0 0 316.416 90.09263422327665" height="90.09263422327665" width="316.416"><g><svg viewBox="0 0 316.416 90.09263422327665" height="90.09263422327665" width="316.416"><g><svg viewBox="0 0 316.416 90.09263422327665" height="90.09263422327665" width="316.416"><g><svg viewBox="0 0 316.416 90.09263422327665" height="90.09263422327665" width="316.416"><g id="textblocktransform"><svg viewBox="0 0 316.416 90.09263422327665" height="90.09263422327665" width="316.416" id="textblock"><g><svg viewBox="0 0 316.416 52.823492326835336" height="52.823492326835336" width="316.416"><g transform="matrix(1,0,0,1,0,0)"><svg width="316.416" viewBox="-2 -36.75 242.08 41.25" height="52.823492326835336" data-palette-color="#030303"><path d="M28.65-31.05L28.65 0 18.1 0 18.1-10.95 12.7-10.95 12.7 0 2 0 2-31.05 12.7-31.05 12.7-19.45 18.1-19.45 18.1-31.05 28.65-31.05ZM42.9-23.45L42.9 0 32.5 0 32.5-23.45 42.9-23.45ZM32.3-28.5L32.3-28.5Q32.3-32.75 37.65-32.75 43-32.75 43-28.5L43-28.5Q43-26.3 41.67-25.35 40.35-24.4 37.65-24.4 34.95-24.4 33.62-25.33 32.3-26.25 32.3-28.5ZM56.55-13.4L56.55-13.4 56.55 0 46.25 0 46.25-23.95 55.15-23.95 55.45-22.35 55.65-22.35Q56.85-23.45 58.4-23.88 59.95-24.3 62.95-24.3L62.95-24.3 62.65-16 59.25-16Q57.75-16 57.15-15.45 56.55-14.9 56.55-13.4ZM64.29-12.08Q64.29-18.65 67.22-21.6 70.14-24.55 76.37-24.55 82.59-24.55 85.44-21.65 88.29-18.75 88.29-12.13 88.29-5.5 85.52-2.5 82.74 0.5 76.42 0.5 70.09 0.5 67.19-2.5 64.29-5.5 64.29-12.08ZM77.67-16.32Q77.39-17.2 76.34-17.2 75.29-17.2 75.02-16.32 74.74-15.45 74.74-12.6L74.74-12.6 74.74-11.4Q74.74-8.2 75.02-7.28 75.29-6.35 76.34-6.35 77.39-6.35 77.67-7.28 77.94-8.2 77.94-11.15L77.94-11.15 77.94-12.55Q77.94-15.45 77.67-16.32ZM111.54-31.05L110.84-22.8 101.74-22.8 101.74-18.55 108.64-18.55 108.64-11.35 101.74-11.35 101.74 0 91.04 0 91.04-31.05 111.54-31.05ZM112.04-15.73Q112.04-24.05 115.36-27.8 118.69-31.55 126.31-31.55 133.94-31.55 137.21-27.85 140.49-24.15 140.49-15.83 140.49-7.5 137.11-3.5 133.74 0.5 126.21 0.5 118.69 0.5 115.36-3.45 112.04-7.4 112.04-15.73ZM129.09-21.68Q128.44-22.95 126.29-22.95 124.14-22.95 123.54-21.7 122.94-20.45 122.94-16.35L122.94-16.35 122.94-14.15Q122.94-9.95 123.59-8.7 124.24-7.45 126.44-7.45 128.64-7.45 129.19-8.65 129.74-9.85 129.74-14L129.74-14 129.74-16.3Q129.74-20.4 129.09-21.68ZM168.04-21.05L168.04-21.05Q168.04-18.05 167.06-16.28 166.09-14.5 164.04-13.15L164.04-13.15 168.69 0 157.64 0 154.54-10.7 153.74-10.7 153.74 0 143.49 0 143.49-31.05 156.74-31.05Q162.54-31.05 165.29-28.63 168.04-26.2 168.04-21.05ZM154.79-16.8Q155.94-16.8 156.41-17.48 156.89-18.15 156.89-19.85 156.89-21.55 156.39-22.2 155.89-22.85 154.84-22.85L154.84-22.85 153.54-22.85 153.54-16.8 154.79-16.8ZM182.63-31.05L182.63-11Q182.63-8.3 185.06-8.3 187.48-8.3 187.48-11.05L187.48-11.05 187.48-31.05 198.18-31.05 198.18-10.4Q198.18-4.9 194.73-2.2 191.28 0.5 184.83 0.5L184.83 0.5Q171.73 0.5 171.73-10.3L171.73-10.3 171.73-31.05 182.63-31.05ZM234.93-31.05L236.08 0 226.63 0 226.63-14.8 226.38-14.8 223.43 0 214.68 0 211.78-14.8 211.53-14.8 211.53 0 202.18 0 203.38-31.05 216.68-31.05 219.03-17 219.48-17 221.78-31.05 234.93-31.05Z" opacity="1" transform="matrix(1,0,0,1,0,0)" fill="#030303" class="wordmark-text-0" data-fill-palette-color="primary" id="text-0"></path></svg></g></svg></g><g transform="matrix(1,0,0,1,3.5,63.12509305363749)"><svg viewBox="0 0 309.416 26.967541169639155" height="26.967541169639155" width="309.416"><g transform="matrix(1,0,0,1,0,0)"><svg width="309.416" viewBox="-3.5 -36.75 536.9 47.6" height="26.967541169639155" data-palette-color="#030303"><path d="M0.5-21.1Q0.5-26.05 3.5-28.8 6.5-31.55 11.83-31.55 17.15-31.55 22.8-30.55L22.8-30.55 21.65-21.75Q15.4-23 13.45-23 11.5-23 11.5-21.8L11.5-21.8Q11.5-21.35 11.8-21.18 12.1-21 12.25-20.9 12.4-20.8 12.83-20.65 13.25-20.5 13.53-20.38 13.8-20.25 15.33-19.63 16.85-19 17.63-18.63 18.4-18.25 19.75-17.4L19.75-17.4Q23.65-14.85 23.65-9.9 23.65-4.95 20.7-2.23 17.75 0.5 12.23 0.5 6.7 0.5 1.4-0.85L1.4-0.85 2.1-9.3Q8.8-7.6 11.15-7.6L11.15-7.6Q12.7-7.6 12.7-8.7L12.7-8.7Q12.7-9.2 12.33-9.5 11.95-9.8 11.23-10.15 10.5-10.5 9.1-11.08 7.7-11.65 6.75-12.08 5.8-12.5 4.5-13.4L4.5-13.4Q0.5-16.15 0.5-21.1ZM45.21-23.45L45.21 0 34.81 0 34.81-23.45 45.21-23.45ZM34.61-28.5L34.61-28.5Q34.61-32.75 39.96-32.75 45.31-32.75 45.31-28.5L45.31-28.5Q45.31-26.3 43.98-25.35 42.66-24.4 39.96-24.4 37.26-24.4 35.93-25.33 34.61-26.25 34.61-28.5ZM87.11-24.55L87.11-24.55Q94.01-24.55 94.01-17.75L94.01-17.75 94.01 0 83.46 0 83.46-15.5Q83.46-16.3 82.86-16.3L82.86-16.3Q82.06-16.3 80.86-15.8L80.86-15.8 80.86 0 70.31 0 70.31-15.5Q70.31-16.3 69.66-16.3L69.66-16.3Q68.76-16.3 67.66-15.8L67.66-15.8 67.66 0 57.26 0 57.26-23.95 66.71-23.95 67.01-22.4Q70.36-24.55 74.26-24.55 78.16-24.55 79.86-22.15L79.86-22.15Q83.26-24.55 87.11-24.55ZM119.92 0.5L119.92 0.5Q118.07 0.5 116.22-0.2L116.22-0.2 116.22 6.85 105.82 6.85 105.82-23.95 114.42-23.95 114.82-22.85Q117.17-24.55 120.47-24.55L120.47-24.55Q125.87-24.55 127.77-21.78 129.67-19 129.67-12.33 129.67-5.65 127.62-2.58 125.57 0.5 119.92 0.5ZM117.72-6.6Q118.77-6.6 119.02-7.73 119.27-8.85 119.27-11.68 119.27-14.5 118.97-15.68 118.67-16.85 117.67-16.85L117.67-16.85Q117.02-16.85 116.12-16.45L116.12-16.45 116.12-6.8Q117.02-6.6 117.72-6.6L117.72-6.6ZM140.82-6.2L140.82-6.2 140.82-32.05 151.07-32.05 151.07-8.5Q151.07-7.15 152.92-7.15L152.92-7.15 152.17 0.5 148.07 0.5Q140.82 0.5 140.82-6.2ZM175.23-16.5L175.23-16.5Q174.18-16.5 173.78-15.85 173.38-15.2 173.38-13.85L173.38-13.85 176.98-13.85 176.98-14.65Q176.98-16.5 175.23-16.5ZM163.08-12.05Q163.08-18 166.21-21.28 169.33-24.55 175.41-24.55 181.48-24.55 184.01-22.05 186.53-19.55 186.53-14.9L186.53-14.9Q186.53-13.05 186.13-9.3L186.13-9.3 173.58-9.3Q173.78-6.6 176.88-6.6L176.88-6.6Q178.33-6.6 184.48-7.65L184.48-7.65 185.33-0.9Q180.03 0.5 175.43 0.5L175.43 0.5Q169.43 0.5 166.26-2.8 163.08-6.1 163.08-12.05ZM224.99-32.4L224.99-32.4Q228.34-32.4 232.44-32.15L232.44-32.15 231.64-24.3Q228.24-24.6 227.77-24.6 227.29-24.6 227.29-24.1L227.29-24.1 227.29-23.25 231.54-23.25 230.99-16.5 227.39-16.5 227.39 0 216.94 0 216.94-16.5 214.54-16.5 214.54-23.25 216.94-23.25 216.94-25.65Q216.94-32.4 224.99-32.4ZM240.65-12.08Q240.65-18.65 243.57-21.6 246.5-24.55 252.72-24.55 258.95-24.55 261.8-21.65 264.65-18.75 264.65-12.13 264.65-5.5 261.87-2.5 259.1 0.5 252.77 0.5 246.45 0.5 243.55-2.5 240.65-5.5 240.65-12.08ZM254.02-16.32Q253.75-17.2 252.7-17.2 251.65-17.2 251.37-16.32 251.1-15.45 251.1-12.6L251.1-12.6 251.1-11.4Q251.1-8.2 251.37-7.28 251.65-6.35 252.7-6.35 253.75-6.35 254.02-7.28 254.3-8.2 254.3-11.15L254.3-11.15 254.3-12.55Q254.3-15.45 254.02-16.32ZM286.11-13.4L286.11-13.4 286.11 0 275.81 0 275.81-23.95 284.71-23.95 285.01-22.35 285.21-22.35Q286.41-23.45 287.96-23.88 289.51-24.3 292.51-24.3L292.51-24.3 292.21-16 288.81-16Q287.31-16 286.71-15.45 286.11-14.9 286.11-13.4ZM310.51 0.5L310.51 0.5Q303.41 0.5 303.41-6.3L303.41-6.3 303.41-23.95 313.91-23.95 313.91-8.25Q313.91-7.45 314.64-7.45 315.36-7.45 316.56-7.95L316.56-7.95 316.56-23.95 327.01-23.95 327.01-0.1 317.01-0.1 317.01-1.35 316.71-1.35Q313.81 0.5 310.51 0.5ZM369.02-24.55L369.02-24.55Q375.92-24.55 375.92-17.75L375.92-17.75 375.92 0 365.37 0 365.37-15.5Q365.37-16.3 364.77-16.3L364.77-16.3Q363.97-16.3 362.77-15.8L362.77-15.8 362.77 0 352.22 0 352.22-15.5Q352.22-16.3 351.57-16.3L351.57-16.3Q350.67-16.3 349.57-15.8L349.57-15.8 349.57 0 339.17 0 339.17-23.95 348.62-23.95 348.92-22.4Q352.27-24.55 356.17-24.55 360.07-24.55 361.77-22.15L361.77-22.15Q365.17-24.55 369.02-24.55ZM424.38-7.45L424.38-7.45Q424.38 0.5 415.13 0.5L415.13 0.5Q410.33 0.5 405.83-0.55L405.83-0.55 406.48-7.9Q412.73-6.4 414.78-6.4L414.78-6.4Q415.48-6.4 415.48-6.85 415.48-7.3 414.68-7.6L414.68-7.6Q409.53-9.35 407.18-11.3 404.83-13.25 404.83-16.9 404.83-20.55 407.41-22.55 409.98-24.55 414.36-24.55 418.73-24.55 423.98-23.55L423.98-23.55 422.93-16Q416.33-17.3 414.93-17.3L414.93-17.3Q414.28-17.3 414.28-16.8L414.28-16.8Q414.28-16.4 415.13-16.1L415.13-16.1Q419.28-14.75 421.13-13.43 422.98-12.1 423.68-10.7 424.38-9.3 424.38-7.45ZM445.74-23.45L445.74 0 435.34 0 435.34-23.45 445.74-23.45ZM435.14-28.5L435.14-28.5Q435.14-32.75 440.49-32.75 445.84-32.75 445.84-28.5L445.84-28.5Q445.84-26.3 444.51-25.35 443.19-24.4 440.49-24.4 437.79-24.4 436.46-25.33 435.14-26.25 435.14-28.5ZM466.54 0.5L466.54 0.5Q462.64 0.5 460.82-0.98 458.99-2.45 458.99-6.05L458.99-6.05 458.99-16.9 456.34-16.9 456.34-23.65 459.49-23.65 460.14-28.1 469.39-28.1 469.39-23.65 473.94-23.65 473.94-16.9 469.34-16.9 469.34-7.65Q469.34-7 469.94-7L469.94-7Q469.99-7 473.89-7.2L473.89-7.2 473.59 0Q468.59 0.5 466.54 0.5ZM496.3-16.5L496.3-16.5Q495.25-16.5 494.85-15.85 494.45-15.2 494.45-13.85L494.45-13.85 498.05-13.85 498.05-14.65Q498.05-16.5 496.3-16.5ZM484.15-12.05Q484.15-18 487.27-21.28 490.4-24.55 496.47-24.55 502.55-24.55 505.07-22.05 507.6-19.55 507.6-14.9L507.6-14.9Q507.6-13.05 507.2-9.3L507.2-9.3 494.65-9.3Q494.85-6.6 497.95-6.6L497.95-6.6Q499.4-6.6 505.55-7.65L505.55-7.65 506.4-0.9Q501.1 0.5 496.5 0.5L496.5 0.5Q490.5 0.5 487.32-2.8 484.15-6.1 484.15-12.05ZM524.55 0.5Q521.85 0.5 520.75-0.48 519.65-1.45 519.65-3.5 519.65-5.55 520.73-6.53 521.8-7.5 524.55-7.5 527.3-7.5 528.35-6.53 529.4-5.55 529.4-3.5 529.4-1.45 528.33-0.48 527.25 0.5 524.55 0.5Z" opacity="1" transform="matrix(1,0,0,1,0,0)" fill="#030303" class="slogan-text-1" data-fill-palette-color="secondary" id="text-1"></path></svg></g></svg></g></svg></g></svg></g><g></g></svg></g></svg></g></svg></g><g mask="url(#3271fc1e-df4c-4174-a093-b4849fa56f32)"><g transform="matrix(3.0673388458699753, 0, 0, 3.0673388458699753, 76.84857003465142, 1)"><svg xmlns="http://www.w3.org/2000/svg" xmlns:xlink="http://www.w3.org/1999/xlink" version="1.1" x="0" y="0" viewBox="10.484 9.974999999999998 78.83800000000001 79.93900000000001" enable-background="new 0 0 100 100" xml:space="preserve" height="79.93900000000001" width="78.83800000000001" class="icon-none" data-fill-palette-color="accent" id="none"><g fill="#030303" data-fill-palette-color="accent"><path d="M81.783 36.531l-18.694 5.394 1.43 4.947 18.692-5.394L81.783 36.531zM81.392 37.24l1.11 3.847-17.594 5.076-1.111-3.847L81.392 37.24zM63.111 34.078l-0.158-0.55 15.785-4.555 0.159 0.55L63.111 34.078 63.111 34.078zM62.407 48.066l-0.158-0.55-19.844 5.726-1.321-4.583 19.842-5.725-0.158-0.55L40.925 48.11l-1.507-5.223-0.55 0.159 1.507 5.223-9.714 2.803-1.507-5.223-0.55 0.159 1.507 5.223L17.74 54.8l0.159 0.55 12.371-3.568 1.321 4.582-12.37 3.568 0.158 0.551 12.371-3.569 0.979 3.39 0.55-0.158-0.979-3.391 9.714-2.802 0.978 3.389 0.55-0.157-0.978-3.39L62.407 48.066zM32.142 56.202l-1.322-4.581 9.714-2.803 1.321 4.583L32.142 56.202zM82.677 49.119l-0.047 0.204c-0.075 0.337-0.153 0.683-0.33 0.919-0.357-0.369-0.515-0.933-0.68-1.525-0.123-0.438-0.251-0.892-0.47-1.268l-0.208-0.356-0.259 0.319c-0.565 0.69-0.719 1.636-0.851 2.473-0.021-0.021-0.038-0.039-0.056-0.058-0.854-0.884-1.737-1.799-1.72-2.984l-0.569-0.048c-0.104 0.669-0.345 1.404-0.6 2.182-0.269 0.826-0.543 1.667-0.678 2.487-0.333-0.465-0.767-0.944-1.212-1.434-0.146-0.162-0.295-0.325-0.439-0.488 0.208-1.336 0.083-2.707-0.9-3.593l-0.188-0.168-0.189 0.163c-0.4 0.343-0.619 0.744-0.646 1.191-0.054 0.837 0.563 1.71 1.312 2.573-0.184 0.968-0.53 1.884-0.771 2.444l0.525 0.225c0.253-0.587 0.53-1.336 0.72-2.133 0.053 0.057 0.104 0.113 0.154 0.17 0.64 0.703 1.292 1.422 1.556 2.036 0.003 0.286 0.031 0.569 0.093 0.848l0.557 0.013c0.085-0.314 0.047-0.639-0.076-0.97 0.02-1.005 0.378-2.11 0.731-3.186 0.113-0.351 0.226-0.694 0.323-1.028 0.357 0.805 1.009 1.479 1.604 2.097 0.152 0.158 0.304 0.313 0.445 0.467l0.389 0.422 0.104-0.563c0.034-0.183 0.063-0.37 0.093-0.561 0.101-0.628 0.201-1.274 0.465-1.801 0.076 0.212 0.142 0.444 0.208 0.682 0.21 0.749 0.425 1.523 1.078 1.991l0.17 0.123 0.167-0.125c0.465-0.344 0.6-0.936 0.707-1.413l0.044-0.194L82.677 49.119zM74.051 48.94c-0.507-0.633-0.878-1.244-0.845-1.77 0.015-0.217 0.1-0.417 0.26-0.605C73.995 47.183 74.12 48.051 74.051 48.94zM33.309 64.928l-1.355 0.393-0.623-2.139 1.356-0.396L33.309 64.928zM34.558 64.564l-0.75 0.217-0.622-2.139 0.749-0.22L34.558 64.564zM36.15 64.1l-0.938 0.272-0.623-2.14 0.938-0.271L36.15 64.1zM37.577 63.686l-0.938 0.272-0.623-2.14 0.938-0.273L37.577 63.686zM39.3 63.184l-1.355 0.396-0.622-2.14 1.356-0.396L39.3 63.184zM40.548 62.82l-0.749 0.219-0.623-2.141 0.75-0.219L40.548 62.82zM42.141 62.357l-0.938 0.271-0.623-2.139 0.938-0.273L42.141 62.357zM43.567 61.941l-0.938 0.273-0.623-2.14 0.938-0.272L43.567 61.941zM47.795 58.395l1.355-0.396 0.622 2.143-1.356 0.394L47.795 58.395zM46.546 58.756l0.75-0.218 0.622 2.14-0.75 0.219L46.546 58.756zM44.954 59.219l0.938-0.273 0.623 2.143-0.938 0.271L44.954 59.219zM43.527 59.634l0.937-0.272 0.623 2.14-0.937 0.272L43.527 59.634zM89.322 51.486L80.491 20.88l-22.259 6.423c-1.796-1.837-4.288-2.992-7.037-3.017 2.758-1.079 4.717-3.757 4.717-6.899 0-4.093-3.316-7.412-7.411-7.412-4.093 0-7.411 3.318-7.411 7.412 0 3.142 1.958 5.82 4.718 6.899-5.27 0.05-9.584 4.234-9.862 9.447l-5.009 1.445c-0.651-1.15-1.872-1.936-3.287-1.936-2.094 0-3.792 1.698-3.792 3.792 0 0.062 0.015 0.12 0.019 0.18L10.484 41.08l8.832 30.605 20.696-5.972v21.978c0 1.224 1.213 2.223 2.697 2.223h2.128c1.484 0 2.698-0.999 2.698-2.223V66.165h1.931v21.526c0 1.224 1.215 2.223 2.698 2.223h2.128c1.484 0 2.698-0.999 2.698-2.223V64.216c1.502-1.106 2.683-2.622 3.382-4.377l6.442-1.858c0.614 1.27 1.901 2.151 3.406 2.151 2.093 0 3.791-1.698 3.791-3.792 0-0.146-0.026-0.281-0.042-0.424L89.322 51.486zM27.649 40.828c1.531 0 2.843-0.913 3.44-2.22l1.31-0.377 1.11 3.849-17.594 5.076-1.109-3.849 10.772-3.109C26.174 40.592 26.881 40.828 27.649 40.828zM70.222 52.548c-2.095 0-3.793 1.699-3.793 3.792 0 0.188 0.028 0.365 0.056 0.545L20.099 70.27l-8.197-28.407 12.2-3.52c0.199 0.542 0.519 1.026 0.924 1.42l-10.929 3.153 1.427 4.948 18.693-5.393-1.428-4.949-1.472 0.425c0.073-0.293 0.123-0.595 0.123-0.911 0-0.27-0.03-0.533-0.084-0.787L79.71 22.298l8.196 28.406-14.221 4.104C73.095 53.479 71.769 52.548 70.222 52.548z" fill="#030303" data-fill-palette-color="accent"></path></g></svg></g></g></svg></g><defs></defs></svg><rect width="395.52" height="247.2" fill="none" stroke="none" visibility="hidden"></rect></g></svg></g></svg>